<svg width="24" height="24" viewBox="0 0 24 24" fill="none" xmlns="http://www.w3.org/2000/svg">
<path d="M2.45399 19.4237C1.8682 20.0095 1.8682 20.9592 2.45399 21.545C3.03977 22.1308 3.98952 22.1308 4.57531 21.545L2.45399 19.4237ZM21.9852 3.51381C21.9852 2.68539 21.3136 2.01381 20.4852 2.01381H6.98521C6.15678 2.01381 5.48521 2.68539 5.48521 3.51381C5.48521 4.34224 6.15678 5.01381 6.98521 5.01381H18.9852V17.0138C18.9852 17.8422 19.6568 18.5138 20.4852 18.5138C21.3136 18.5138 21.9852 17.8422 21.9852 17.0138V3.51381ZM4.57531 21.545L21.5459 4.57447L19.4246 2.45315L2.45399 19.4237L4.57531 21.545Z" fill="black"/>
</svg>
